<?xml version="1.0" encoding="utf-8"?>
<!-- Generator: Adobe Illustrator 25.2.1, SVG Export Plug-In . SVG Version: 6.00 Build 0)  -->
<svg version="1.1" id="Capa_1" xmlns="http://www.w3.org/2000/svg" xmlns:xlink="http://www.w3.org/1999/xlink" x="0px" y="0px"
	 viewBox="0 0 895 806" style="enable-background:new 0 0 895 806;" xml:space="preserve">
<style type="text/css">
	.st0{fill:none;stroke:#E85E49;stroke-width:40.9677;stroke-opacity:0.5;}
	.st1{fill:none;stroke:#E85E49;stroke-width:177.5269;stroke-opacity:0.5;}
	.st2{fill:none;stroke:#9E0142;stroke-width:61.4516;stroke-opacity:0.5;}
	.st3{fill:none;stroke:#E85E49;stroke-width:129.7312;stroke-opacity:0.5;}
	.st4{fill:none;stroke:#9E0142;stroke-width:13.6559;stroke-opacity:0.5;}
	.st5{fill:none;stroke:#E85E49;stroke-width:109.2473;stroke-opacity:0.5;}
	.st6{fill:none;stroke:#BEE5A0;stroke-width:13.6559;stroke-opacity:0.5;}
	.st7{fill:none;stroke:#FFF57D;stroke-width:75.1075;stroke-opacity:0.5;}
	.st8{fill:none;stroke:#56ADAE;stroke-width:13.6559;stroke-opacity:0.5;}
	.st9{fill:none;stroke:#5E4FA2;stroke-width:34.1398;stroke-opacity:0.5;}
	.st10{fill:none;stroke:#5E4FA2;stroke-width:20.4839;stroke-opacity:0.5;}
	.st11{fill:none;stroke:#FDBE70;stroke-width:13.6559;stroke-opacity:0.5;}
	.st12{fill:none;stroke:#FFF57D;stroke-width:27.3118;stroke-opacity:0.5;}
	.st13{fill:none;stroke:#5E4FA2;stroke-width:6.828;stroke-opacity:0.5;}
	.st14{fill:none;stroke:#FFF57D;stroke-width:6.828;stroke-opacity:0.5;}
	.st15{fill:none;stroke:#56ADAE;stroke-width:75.1075;stroke-opacity:0.5;}
	.st16{fill:none;stroke:#FFF57D;stroke-width:34.1398;stroke-opacity:0.5;}
	.st17{fill:none;stroke:#FDBE70;stroke-width:20.4839;stroke-opacity:0.5;}
	.st18{fill:none;stroke:#5E4FA2;stroke-width:40.9677;stroke-opacity:0.5;}
	.st19{fill:none;stroke:#5E4FA2;stroke-width:13.6559;stroke-opacity:0.5;}
	.st20{fill:none;stroke:#FFF57D;stroke-width:61.4516;stroke-opacity:0.5;}
	.st21{fill:none;stroke:#56ADAE;stroke-width:27.3118;stroke-opacity:0.5;}
	.st22{fill:none;stroke:#56ADAE;stroke-width:6.828;stroke-opacity:0.5;}
	.st23{fill:none;stroke:#FFF57D;stroke-width:13.6559;stroke-opacity:0.5;}
	.st24{fill:none;stroke:#BEE5A0;stroke-width:6.828;stroke-opacity:0.5;}
	.st25{fill:none;stroke:#FDBE70;stroke-width:6.828;stroke-opacity:0.5;}
	.st26{font-family:'Arial-BoldMT';}
	.st27{font-size:10px;}
	.st28{font-size:7px;}
	.st29{font-family:'ArialMT';}
	.st30{font-size:12px;}
</style>
<g id="visualization" transform="translate(10,10)">
	<g>
		<rect x="849" y="75.1" width="5" height="13.7"/>
		<rect x="849" y="93.8" width="5" height="13.7"/>
		<rect x="849" y="112.4" width="5" height="13.7"/>
		<rect x="849" y="131.1" width="5" height="27.3"/>
		<rect x="849" y="163.4" width="5" height="34.1"/>
		<rect x="436.5" y="87.6" width="5" height="41"/>
		<rect x="436.5" y="133.6" width="5" height="41"/>
		<rect x="849" y="202.5" width="5" height="41"/>
		<rect x="849" y="248.5" width="5" height="47.8"/>
		<rect x="24" y="95.1" width="5" height="136.6"/>
		<rect x="849" y="301.3" width="5" height="136.6"/>
		<rect x="849" y="442.9" width="5" height="136.6"/>
		<rect x="436.5" y="179.5" width="5" height="143.4"/>
		<rect x="436.5" y="327.9" width="5" height="170.7"/>
		<rect x="849" y="584.4" width="5" height="170.7"/>
		<rect x="436.5" y="503.6" width="5" height="239"/>
		<rect x="24" y="236.7" width="5" height="498.4"/>
	</g>
	<g>
		<g>
			<path class="st0" d="M29,257.2c203.8,0,203.8-149.1,407.5-149.1"/>
		</g>
		<g>
			<path class="st1" d="M29,646.3c203.8,0,203.8,7.5,407.5,7.5"/>
		</g>
		<g>
			<path class="st2" d="M29,200.9c203.8,0,203.8,333.4,407.5,333.4"/>
		</g>
		<g>
			<path class="st3" d="M29,383.5c203.8,0,203.8-125.4,407.5-125.4"/>
		</g>
		<g>
			<path class="st4" d="M29,101.9c203.8,0,203.8,84.4,407.5,84.4"/>
		</g>
		<g>
			<path class="st5" d="M29,503c203.8,0,203.8-59,407.5-59"/>
		</g>
		<g>
			<path class="st2" d="M29,139.5c203.8,0,203.8,219.2,407.5,219.2"/>
		</g>
		<g>
			<path class="st0" d="M29,298.1c203.8,0,203.8-144.1,407.5-144.1"/>
		</g>
		<g>
			<path class="st6" d="M441.5,108.1c203.8,0,203.8,200,407.5,200"/>
		</g>
		<g>
			<path class="st7" d="M441.5,609.5c203.8,0,203.8-209.2,407.5-209.2"/>
		</g>
		<g>
			<path class="st8" d="M441.5,213.7c203.8,0,203.8,108.1,407.5,108.1"/>
		</g>
		<g>
			<path class="st9" d="M441.5,406.5c203.8,0,203.8-60.8,407.5-60.8"/>
		</g>
		<g>
			<path class="st10" d="M441.5,379.1c203.8,0,203.8-93.1,407.5-93.1"/>
		</g>
		<g>
			<path class="st11" d="M441.5,147.2c203.8,0,203.8,108.1,407.5,108.1"/>
		</g>
		<g>
			<path class="st8" d="M441.5,200c203.8,0,203.8,69,407.5,69"/>
		</g>
		<g>
			<path class="st12" d="M441.5,530.9c203.8,0,203.8-386.2,407.5-386.2"/>
		</g>
		<g>
			<path class="st13" d="M441.5,331.3c203.8,0,203.8-252.8,407.5-252.8"/>
		</g>
		<g>
			<path class="st14" d="M441.5,507C645.2,507,645.2,85.4,849,85.4"/>
		</g>
		<g>
			<path class="st15" d="M441.5,285.4c203.8,0,203.8,357.1,407.5,357.1"/>
		</g>
		<g>
			<path class="st16" d="M441.5,725.5c203.8,0,203.8,12.5,407.5,12.5"/>
		</g>
		<g>
			<path class="st17" d="M441.5,164.3c203.8,0,203.8,430.3,407.5,430.3"/>
		</g>
		<g>
			<path class="st18" d="M441.5,478.1c203.8,0,203.8,222.3,407.5,222.3"/>
		</g>
		<g>
			<path class="st19" d="M441.5,341.6c203.8,0,203.8-241,407.5-241"/>
		</g>
		<g>
			<path class="st20" d="M441.5,677.7c203.8,0,203.8-129.1,407.5-129.1"/>
		</g>
		<g>
			<path class="st9" d="M441.5,440.6c203.8,0,203.8,60.3,407.5,60.3"/>
		</g>
		<g>
			<path class="st21" d="M441.5,234.2c203.8,0,203.8,236,407.5,236"/>
		</g>
		<g>
			<path class="st6" d="M441.5,121.7c203.8,0,203.8,327.9,407.5,327.9"/>
		</g>
		<g>
			<path class="st14" d="M441.5,513.9c203.8,0,203.8-391.2,407.5-391.2"/>
		</g>
		<g>
			<path class="st22" d="M441.5,183c203.8,0,203.8-67.1,407.5-67.1"/>
		</g>
		<g>
			<path class="st23" d="M441.5,551.4c203.8,0,203.8-360.7,407.5-360.7"/>
		</g>
		<g>
			<path class="st24" d="M441.5,91c203.8,0,203.8,75.8,407.5,75.8"/>
		</g>
		<g>
			<path class="st19" d="M441.5,355.2C645.2,355.2,645.2,177,849,177"/>
		</g>
		<g>
			<path class="st24" d="M441.5,97.9c203.8,0,203.8,108.1,407.5,108.1"/>
		</g>
		<g>
			<path class="st23" d="M441.5,565.1c203.8,0,203.8-328.4,407.5-328.4"/>
		</g>
		<g>
			<path class="st25" d="M441.5,137c203.8,0,203.8,75.8,407.5,75.8"/>
		</g>
		<g>
			<path class="st22" d="M441.5,189.8c203.8,0,203.8,29.8,407.5,29.8"/>
		</g>
		<g>
			<path class="st13" d="M441.5,365.5c203.8,0,203.8-139.1,407.5-139.1"/>
		</g>
	</g>
	<text transform="matrix(1 0 0 1 731.1328 76.4189)" class="st26 st27">ANTI-ISLAMIC(MUSLIM)</text>
	<text transform="matrix(1 0 0 1 839.8584 85.3519)" class="st26 st28">2</text>
	<text transform="matrix(1 0 0 1 713.3447 95.0748)" class="st26 st27">ANTI-LGBT(MIXED GROUP)</text>
	<g>
		<text transform="matrix(1 0 0 1 839.4385 104.0748)" class="st29 st28">2</text>
	</g>
	<text transform="matrix(1 0 0 1 741.1133 113.7308)" class="st26 st27">ANTI-TRANSGENDER</text>
	<g>
		<text transform="matrix(1 0 0 1 839.4385 122.7308)" class="st29 st28">2</text>
	</g>
	<text transform="matrix(1 0 0 1 777.2314 139.2147)" class="st26 st27">ANTI-FEMALE</text>
	<g>
		<text transform="matrix(1 0 0 1 839.4385 148.2147)" class="st29 st28">4</text>
	</g>
	<text transform="matrix(1 0 0 1 786.123 174.9404)" class="st26 st27">ANTI-WHITE</text>
	<g>
		<text transform="matrix(1 0 0 1 839.4385 183.9404)" class="st29 st28">5</text>
	</g>
	<text transform="matrix(1 0 0 1 445.5 102.5748)" class="st26 st27">BLACK HISPANIC</text>
	<text transform="matrix(1 0 0 1 445.5 114.5748)" class="st29 st27">6</text>
	<text transform="matrix(1 0 0 1 445.5 148.5426)" class="st26 st27">ASIAN / PACIFIC ISLANDER</text>
	<text transform="matrix(1 0 0 1 445.5 160.5426)" class="st29 st27">6</text>
	<text transform="matrix(1 0 0 1 810 217.4942)" class="st26 st27">OTHER</text>
	<g>
		<text transform="matrix(1 0 0 1 839.4385 226.4942)" class="st29 st28">6</text>
	</g>
	<text transform="matrix(1 0 0 1 783.3447 266.8759)" class="st26 st27">ANTI-BLACK</text>
	<g>
		<text transform="matrix(1 0 0 1 839.4385 275.8759)" class="st29 st28">7</text>
	</g>
	<text transform="matrix(1 0 0 1 33 157.8705)" class="st26 st27">FEMALE</text>
	<text transform="matrix(1 0 0 1 33 169.8705)" class="st29 st27">20</text>
	<text transform="matrix(1 0 0 1 787.2266 364.0533)" class="st26 st27">ANTI-ASIAN</text>
	<g>
		<text transform="matrix(1 0 0 1 836.877 376.0533)" class="st29 st28">20</text>
	</g>
	<text transform="matrix(1 0 0 1 688.1494 505.6125)" class="st26 st27">ANTI-MALE HOMOSEXUAL(GAY)</text>
	<g>
		<text transform="matrix(1 0 0 1 836.877 517.6125)" class="st29 st28">20</text>
	</g>
	<text transform="matrix(1 0 0 1 445.5 245.72)" class="st26 st27">WHITE</text>
	<text transform="matrix(1 0 0 1 445.5 257.72)" class="st29 st27">21</text>
	<text transform="matrix(1 0 0 1 445.5 407.7631)" class="st26 st27">WHITE HISPANIC</text>
	<text transform="matrix(1 0 0 1 445.5 419.7631)" class="st29 st27">25</text>
	<text transform="matrix(1 0 0 1 780 664.2415)" class="st26 st27">ANTI-JEWISH</text>
	<g>
		<text transform="matrix(1 0 0 1 836.877 676.2415)" class="st29 st28">25</text>
	</g>
	<text transform="matrix(1 0 0 1 445.5 617.6017)" class="st26 st27">BLACK</text>
	<text transform="matrix(1 0 0 1 445.5 629.6017)" class="st29 st27">35</text>
	<text transform="matrix(1 0 0 1 33 480.3705)" class="st26 st27">MALE</text>
	<text transform="matrix(1 0 0 1 33 492.3705)" class="st29 st27">73</text>
	<text transform="matrix(1 0 0 1 787.2271 54.0647)" class="st26 st30">Bias-Motivation</text>
	<text transform="matrix(1 0 0 1 420.3511 54.0646)" class="st26 st30">Race</text>
	<text transform="matrix(1 0 0 1 6.0698 54.0646)" class="st26 st30">Gender</text>
</g>
</svg>
